<svg width="20" height="20" viewBox="0 0 20 20" fill="none" xmlns="http://www.w3.org/2000/svg">
<path d="M12.8571 6.19048H13.8095V5.2381H12.8571V6.19048ZM10.9524 6.19048H11.9048V5.2381H10.9524V6.19048ZM12.381 20L5.71429 18.1429V9.04762H7.57143L13.4762 11.2381C14 11.4286 14.4248 11.7619 14.7505 12.2381C15.0756 12.7143 15.2381 13.2381 15.2381 13.8095H13.3333C12.6667 13.8095 12.1429 13.7857 11.7619 13.7381C11.381 13.6905 11.0476 13.619 10.7619 13.5238L8.85714 12.9048L8.57143 13.8095L10.0714 14.3571C10.5159 14.5317 10.9206 14.6429 11.2857 14.6905C11.6508 14.7381 12.0794 14.7619 12.5714 14.7619H17.1429C18.1905 14.7619 18.9286 14.9327 19.3571 15.2743C19.7857 15.6152 20 16.0794 20 16.6667V17.619L12.381 20ZM0 19.5238V9.04762H3.80952V19.5238H0ZM16.6905 11.9048C16.4683 11.381 16.1508 10.9206 15.7381 10.5238C15.3254 10.127 14.8175 9.81746 14.2143 9.59524L7.61905 7.14286H5.71429V4.7619L12.381 0L19.0476 4.7619V11.9048H16.6905ZM12.8571 8.09524H13.8095V7.14286H12.8571V8.09524ZM10.9524 8.09524H11.9048V7.14286H10.9524V8.09524Z" fill="#193D3B"/>
</svg>
